<?xml version="1.0" encoding="UTF-8"?>
<svg xmlns="http://www.w3.org/2000/svg" width="1080" height="900" viewBox="0 0 1080 900">
  <path d="M 936 161 L 926 154 L 915 160 L 783 432 L 664 460 L 658 456 L 760 237 L 760 215 L 746 207 L 735 208 L 608 474 L 538 515 L 352 662 L 302 691 L 254 706 L 227 696 L 209 672 L 199 637 L 202 598 L 217 542 L 245 473 L 287 396 L 331 333 L 383 273 L 426 232 L 476 194 L 506 181 L 546 178 L 562 184 L 570 196 L 561 240 L 526 314 L 536 332 L 553 335 L 559 330 L 594 256 L 603 222 L 603 187 L 590 157 L 568 142 L 549 138 L 506 142 L 463 160 L 429 182 L 376 226 L 310 298 L 252 379 L 208 457 L 177 536 L 163 607 L 166 657 L 186 703 L 208 725 L 240 736 L 272 736 L 310 725 L 393 676 L 538 556 L 576 533 L 576 546 L 519 682 L 524 700 L 548 709 L 561 696 L 562 679 L 574 644 L 631 512 L 644 502 L 674 491 L 765 470 L 766 482 L 712 622 L 691 708 L 688 750 L 693 766 L 704 774 L 724 769 L 727 710 L 744 639 L 771 562 L 813 464 L 836 455 L 959 443 L 970 437 L 963 421 L 948 416 L 914 416 L 836 426 L 831 422 L 939 197 L 944 178 Z" fill="white" fill-rule="evenodd"/>
</svg>
